<svg xmlns="http://www.w3.org/2000/svg" xmlns:xlink="http://www.w3.org/1999/xlink" width="100" height="100" viewBox="0 0 100 100"><defs><style>.a{fill:none;}.b{clip-path:url(#a);}.c{fill:#ecf0f1;stroke:#ecf0f1;stroke-miterlimit:10;}</style><clipPath id="a"><rect class="a" width="100" height="100"/></clipPath></defs><title>raindrops-01</title><g class="b"><path class="c" d="M0,78.42c0,13.16-15,15.51-15,28.21a15,15,0,0,0,15,15,15,15,0,0,0,15-15C15,93.88,0,91.7,0,78.42m0,0c0,13.16-15,15.51-15,28.21a15,15,0,0,0,15,15,15,15,0,0,0,15-15C15,93.88,0,91.7,0,78.42"/><path class="a" d="M0,52.17C0,77-28.42,81.49-28.42,105.49A28.34,28.34,0,0,0,0,133.76a28.34,28.34,0,0,0,28.42-28.27C28.42,81.39,0,77.27,0,52.17m0,0C0,77-28.42,81.49-28.42,105.49A28.34,28.34,0,0,0,0,133.76a28.34,28.34,0,0,0,28.42-28.27C28.42,81.39,0,77.27,0,52.17"/><path class="c" d="M100,78.42c0,13.16-15,15.51-15,28.21a15,15,0,0,0,30.06,0c0-12.75-15-14.93-15-28.21m0,0c0,13.16-15,15.51-15,28.21a15,15,0,0,0,30.06,0c0-12.75-15-14.93-15-28.21"/><path class="c" d="M50,28.42c0,13.16-15,15.51-15,28.21a15,15,0,0,0,30.06,0C65,43.88,50,41.7,50,28.42m0,0c0,13.16-15,15.51-15,28.21a15,15,0,0,0,30.06,0C65,43.88,50,41.7,50,28.42"/><path class="a" d="M100,52.17C100,77,71.58,81.49,71.58,105.49a28.42,28.42,0,0,0,56.83,0c0-24.1-28.42-28.22-28.42-53.32m0,0C100,77,71.58,81.49,71.58,105.49a28.42,28.42,0,0,0,56.83,0c0-24.1-28.42-28.22-28.42-53.32"/><path class="c" d="M100-21.58C100-8.42,85-6.07,85,6.63a15,15,0,0,0,30.06,0c0-12.75-15-14.93-15-28.21m0,0C100-8.42,85-6.07,85,6.63a15,15,0,0,0,30.06,0c0-12.75-15-14.93-15-28.21"/><path class="a" d="M100-40.79c0,24.88-28.42,29.33-28.42,53.32a28.42,28.42,0,0,0,56.83,0c0-24.1-28.42-28.22-28.42-53.32m0,0c0,24.88-28.42,29.33-28.42,53.32a28.42,28.42,0,0,0,56.83,0c0-24.1-28.42-28.22-28.42-53.32"/><path class="c" d="M0-21.58C0-8.42-15-6.07-15,6.63a15,15,0,0,0,15,15,15,15,0,0,0,15-15C15-6.12,0-8.3,0-21.58m0,0C0-8.42-15-6.07-15,6.63a15,15,0,0,0,15,15,15,15,0,0,0,15-15C15-6.12,0-8.3,0-21.58"/><path class="a" d="M0-40.79C0-15.91-28.42-11.47-28.42,12.53A28.34,28.34,0,0,0,0,40.79,28.34,28.34,0,0,0,28.42,12.53C28.42-11.58,0-15.69,0-40.79m0,0C0-15.91-28.42-11.47-28.42,12.53A28.34,28.34,0,0,0,0,40.79,28.34,28.34,0,0,0,28.42,12.53C28.42-11.58,0-15.69,0-40.79"/></g></svg>